<svg xmlns="http://www.w3.org/2000/svg" width="18" height="16" viewBox="0 0 18 16">
    <g fill="none" fill-rule="evenodd">
        <g fill="#000" fill-rule="nonzero">
            <g>
                <g>
                    <path d="M16.748 1.46H6.364C6.078.614 5.276 0 4.334 0 3.39 0 2.587.613 2.302 1.46H.682c-.377 0-.682.306-.682.682 0 .377.305.682.682.682h1.62c.286.848 1.088 1.46 2.031 1.46.943 0 1.745-.612 2.03-1.46H16.75c.376 0 .681-.305.681-.682 0-.376-.305-.681-.682-.681zM4.333 2.922c-.43 0-.778-.35-.778-.779 0-.429.349-.778.778-.778.43 0 .78.349.78.778 0 .43-.35.78-.78.78zM16.748 7.303h-1.62c-.286-.848-1.088-1.46-2.031-1.46-.943 0-1.745.612-2.03 1.46H.681c-.377 0-.682.305-.682.682 0 .376.305.682.682.682h10.384c.286.848 1.088 1.46 2.031 1.46.943 0 1.745-.612 2.03-1.46h1.621c.377 0 .682-.306.682-.682 0-.377-.305-.682-.682-.682zm-3.651 1.46c-.43 0-.779-.349-.779-.778 0-.43.35-.779.779-.779.43 0 .779.35.779.779 0 .43-.35.779-.779.779zM16.748 13.145H9.285c-.285-.848-1.087-1.46-2.03-1.46-.943 0-1.745.612-2.031 1.46H.682c-.377 0-.682.306-.682.682 0 .377.305.682.682.682h4.542c.285.848 1.088 1.46 2.03 1.46.944 0 1.746-.612 2.031-1.46h7.463c.377 0 .682-.305.682-.682 0-.376-.305-.682-.682-.682zm-9.493 1.461c-.43 0-.78-.35-.78-.779 0-.43.35-.778.78-.778.429 0 .778.349.778.778 0 .43-.349.779-.778.779z" transform="translate(-36 -83) translate(36 83)"/>
                </g>
            </g>
        </g>
    </g>
</svg>
